<svg id="bcb53758-7a62-4336-b08a-ca99fafced19" data-name="70f21552-7c97-429a-b840-e26f00c2f749" xmlns="http://www.w3.org/2000/svg" xmlns:xlink="http://www.w3.org/1999/xlink" viewBox="0 0 6035.91 4907.46">
  <defs>
    <clipPath id="20ba0601-156f-434f-b857-6ee409c796a1" transform="translate(550 0.03)">
      <rect x="-2.54" y="-10.37" width="4925.98" height="4923.78" style="fill: none"/>
    </clipPath>
  </defs>
  <title>Logo</title>
  <g style="clip-path: url(#20ba0601-156f-434f-b857-6ee409c796a1)">
    <g>
      <path d="M2406.79,3104.88l-102.9-102.78C1594,2292.2,1549.47,1246.79,2273,523.19s1931-682.09,2647.58,34.3c744.46,743.83,758.37,1950.91,13.91,2694.94C4533,3653.2,3953.42,3869.1,3380.59,3804.31L3391.11,3362c439,68.68,919.23-75.48,1234.52-390.76,579.77-579.7,562.56-1501.81-17.22-2081.33-541.78-541.53-1502.23-610.28-2061.06-51.43-401.23,401.1-487,1179.65-78.82,1615L3137.05,1785l295.19,294.77Zm61.74-651.43L3137.05,1785l295.19,294.77L2406.79,3104.88" transform="translate(550 0.03)" style="fill: #fff"/>
      <path d="M2529,1802.69l103.12,102.74c709.77,709.56,754.38,1755.4,30.7,2478.4-723.64,724-1931,682.47-2647.75-33.58-744.25-744.37-758-1950.9-13.7-2695,401.11-401,980.88-617,1553.66-552l-10.17,442.19c-439.14-68.52-919.4,75.73-1234.69,390.67-579.82,580-562.52,1501.9,17.17,2081.42,541.66,541.7,1502.07,610.22,2061.28,51.39,401.06-401,487-1179.23,78.86-1614.93l-668.9,668.56-295-294.76Z" transform="translate(550 0.03)" style="fill: #f99d1c"/>
    </g>
  </g>
  <polyline points="3019.84 2460.43 3688.4 1791.78 3983.42 2086.59 2958.15 3111.52" style="fill: #fff"/>
</svg>
